# xmcd
#
# Track frame offsets:
#	150
#	11478
#	29454
#	45808
#	62181
#	79146
#	98639
#	119270
#	132527
#	143512
#	164961
#	180393
#
# Disc length: 2479 seconds
#
# Revision: 1
# Processed by: cddbd v1.5.1PL0 Copyright (c) Steve Scherf et al.
# Submitted via: audiograbber 1.83.01
#
DISCID=9a09ad0c
DTITLE=Robert Earl Keen - A Bigger Piece of Sky
DYEAR=1900
DGENRE=
TTITLE0=Amarillo Highway
TTITLE1=Corpus Christi Bay
TTITLE2=Whenever Kindness Fails
TTITLE3=Blow You Away
TTITLE4=Jesse With the Long Hair
TTITLE5=Night Right For Love
TTITLE6=Paint the Town Bridge
TTITLE7=Daddy Had a Buick
TTITLE8=Crazy Cowboy Dream
TTITLE9=Here in Arkansas
TTITLE10=So I Can Take My Rest
TTITLE11=Blow You Away (Reprise)
EXTD=
EXTT0=
EXTT1=
EXTT2=
EXTT3=
EXTT4=
EXTT5=
EXTT6=
EXTT7=
EXTT8=
EXTT9=
EXTT10=
EXTT11=
PLAYORDER=
